<?xml version="1.0" encoding="UTF-8"?>
<svg width="374px" height="319px" viewBox="0 0 374 319" version="1.1" xmlns="http://www.w3.org/2000/svg" xmlns:xlink="http://www.w3.org/1999/xlink">
    <!-- Generator: Sketch 50.2 (55047) - http://www.bohemiancoding.com/sketch -->
    <title>Group 2</title>
    <desc>Created with Sketch.</desc>
    <defs></defs>
    <g id="Page-1" stroke="none" stroke-width="1" fill="none" fill-rule="evenodd">
        <g id="noun_Vaccination_1883515" transform="translate(0.000000, -1.000000)" fill="#42A5F5" fill-rule="nonzero">
            <g id="Group">
                <g id="Group-2">
                    <path d="M0,298.6 C0,298.7 0,298.7 0,298.6 C0,310.4 9.5,320 21.3,320 L352.7,320 C364.5,320 374,310.4 374,298.6 L374,85 L0,85 L0,298.6 Z M279.8,106.4 L288.9,115.4 L257.2,147.1 L248.2,138 L279.8,106.4 Z M230.6,147.1 C235.5,142.2 243.4,142.3 248.2,147.1 C253.1,152 253,159.9 248.2,164.7 L244.3,168.6 L226.6,151 L230.6,147.1 Z M200.8,157.1 C204.6,153.3 210.8,153.3 214.6,157.1 L238.1,180.7 C241.9,184.5 241.9,190.7 238.1,194.5 L201.4,231.4 L163.9,193.9 L200.8,157.1 Z M107.9,201.5 C110.4,199 114.4,199 116.9,201.5 L136.5,221.1 L154.9,202.8 L192.4,240.3 L174.1,258.7 L193.7,278.3 C196.2,280.8 196.2,284.8 193.7,287.3 C191.2,289.8 187.2,289.8 184.7,287.3 L150.8,253.4 L128.8,275.5 L119.7,266.5 L141.7,244.4 L127.5,230.2 L107.9,210.6 C105.4,208.1 105.4,204 107.9,201.5 Z M100.3,272.6 C106.5,266.4 116.5,266.4 122.7,272.6 C125.7,275.6 127.4,279.6 127.4,283.8 C127.4,292.5 120.3,299.6 111.5,299.6 C107.3,299.6 103.3,297.9 100.3,295 C94.1,288.9 94.1,278.8 100.3,272.6 Z" id="Shape"></path>
                    <path d="M374,22.1 C373.9,10.4 364.4,0.9 352.7,1 L318,1 L318,30.6 C318,36.1 313.5,40.6 308,40.6 C302.5,40.6 298,36.1 298,30.6 L298,1 L197,1 L197,30.6 C197,36.1 192.5,40.6 187,40.6 C181.5,40.6 177,36.1 177,30.6 L177,1 L76,1 L76,30.6 C76,36.1 71.5,40.6 66,40.6 C60.5,40.6 56,36.1 56,30.6 L56,1 L21.3,1 L21.2,1 C9.5,1 0,10.5 0,22.2 L0,65 L374,65 L374,22.1 Z" id="Shape"></path>
                </g>
            </g>
        </g>
    </g>
</svg>