<?xml version="1.0" encoding="UTF-8"?>
<svg width="64px" height="82px" viewBox="0 0 64 82" version="1.1" xmlns="http://www.w3.org/2000/svg" xmlns:xlink="http://www.w3.org/1999/xlink">
    <!-- Generator: Sketch 50.2 (55047) - http://www.bohemiancoding.com/sketch -->
    <title>noun_secure_1268338</title>
    <desc>Created with Sketch.</desc>
    <defs></defs>
    <g id="Page-1" stroke="none" stroke-width="1" fill="none" fill-rule="evenodd">
        <g id="noun_secure_1268338" fill="#42A5F5" fill-rule="nonzero">
            <path d="M32,0.73 C20.3039374,0.746523777 10.8265238,10.2239374 10.81,21.92 L10.81,29 L10.46,29 C5.21557961,29.0055117 0.965511744,33.2555796 0.96,38.5 L0.96,71.77 C0.965511744,77.0144204 5.21557961,81.2644883 10.46,81.27 L53.54,81.27 C58.7844204,81.2644883 63.0344883,77.0144204 63.04,71.77 L63.04,38.54 C63.0344883,33.2955796 58.7844204,29.0455117 53.54,29.04 L53.19,29.04 L53.19,21.92 C53.1734762,10.2239374 43.6960626,0.746523777 32,0.73 Z M13.81,21.92 C13.8100001,11.8739405 21.9539405,3.73000027 32,3.73000027 C42.0460595,3.73000027 50.1899999,11.8739405 50.19,21.92 L50.19,29 L13.81,29 L13.81,21.92 Z M60,38.54 L60,71.77 C59.9944934,75.3575675 57.0875675,78.2644934 53.5,78.27 L10.46,78.27 C6.87243253,78.2644934 3.96550664,75.3575675 3.96,71.77 L3.96,38.54 C3.96550664,34.9524325 6.87243253,32.0455066 10.46,32.04 L53.54,32.04 C57.1119367,32.067431 59.9946183,34.967962 60,38.54 Z" id="Shape"></path>
            <path d="M32,46.5 C28.7501698,46.5048293 26.016511,48.937353 25.6341342,52.1646131 C25.2517574,55.3918731 27.3412795,58.3958638 30.5,59.16 L30.5,69.69 C30.5,70.5184271 31.1715729,71.19 32,71.19 C32.8284271,71.19 33.5,70.5184271 33.5,69.69 L33.5,59.16 C36.6587205,58.3958638 38.7482426,55.3918731 38.3658658,52.1646131 C37.983489,48.937353 35.2498302,46.5048293 32,46.5 Z M32,56.35 C30.1111862,56.35 28.58,54.8188138 28.58,52.93 C28.58,51.0411862 30.1111862,49.51 32,49.51 C33.8888138,49.51 35.42,51.0411862 35.42,52.93 C35.4145079,54.8165342 33.8865342,56.3445079 32,56.35 Z" id="Shape"></path>
        </g>
    </g>
</svg>