<?xml version="1.0" encoding="UTF-8"?>
<svg width="336px" height="399px" viewBox="0 0 336 399" version="1.1" xmlns="http://www.w3.org/2000/svg" xmlns:xlink="http://www.w3.org/1999/xlink">
    <!-- Generator: Sketch 50.2 (55047) - http://www.bohemiancoding.com/sketch -->
    <title>noun_Share_2028611</title>
    <desc>Created with Sketch.</desc>
    <defs></defs>
    <g id="Page-1" stroke="none" stroke-width="1" fill="none" fill-rule="evenodd">
        <g id="noun_Share_2028611" fill="#42A5F5" fill-rule="nonzero">
            <g id="Group">
                <path d="M297.3,137 L261.7,137 C256.7,137 252.7,141 252.7,146 C252.7,151 256.7,155 261.7,155 L297.3,155 C308.9,155 318,164.5 318,176.1 L318,360.3 C318,371.9 308.9,381 297.3,381 L38.7,381 C27.1,381 18,371.9 18,360.3 L18,176.1 C18,164.5 27.1,155 38.7,155 L73.6,155 C78.6,155 82.6,151 82.6,146 C82.6,141 78.6,137 73.6,137 L38.7,137 C17.2,137 -1.42108547e-14,154.6 -1.42108547e-14,176.1 L-1.42108547e-14,360.3 C-1.42108547e-14,381.8 17.2,399 38.7,399 L297.3,399 C318.8,399 336,381.8 336,360.3 L336,176.1 C336,154.6 318.8,137 297.3,137 Z" id="Shape"></path>
                <path d="M168,259.7 C173,259.7 177,255.7 177,250.7 L177,29.6 L237.8,82.3 C239.5,83.8 241.6,84.5 243.7,84.5 C246.2,84.5 248.7,83.4 250.5,81.4 C253.8,77.6 253.4,72 249.6,68.7 L175,4 C173.3,2 170.8,0.7 168,0.7 C165,0.7 162.3,2.2 160.7,4.5 L96,69.2 C92.5,72.7 92.5,78.4 96,81.9 C99.5,85.4 105.2,85.4 108.7,81.9 L159,31.6 L159,250.7 C159,255.7 163,259.7 168,259.7 Z" id="Shape"></path>
            </g>
        </g>
    </g>
</svg>