<?xml version="1.0" encoding="UTF-8"?>
<svg width="54px" height="52px" viewBox="0 0 54 52" version="1.1" xmlns="http://www.w3.org/2000/svg" xmlns:xlink="http://www.w3.org/1999/xlink">
    <!-- Generator: Sketch 50.2 (55047) - http://www.bohemiancoding.com/sketch -->
    <title>noun_verified_1410668</title>
    <desc>Created with Sketch.</desc>
    <defs></defs>
    <g id="Page-1" stroke="none" stroke-width="1" fill="none" fill-rule="evenodd">
        <g id="noun_verified_1410668" fill="#42A5F5" fill-rule="nonzero">
            <g id="Group">
                <path d="M26.2,51.5 C12.1,51.5 0.7,40.1 0.7,26 C0.7,11.9 12.1,0.5 26.2,0.5 C32.6,0.5 38.7,2.9 43.5,7.2 C44.1,7.8 44.1,8.7 43.6,9.3 C43,10 42,10 41.4,9.4 C37.2,5.6 31.8,3.5 26.2,3.5 C13.8,3.5 3.7,13.6 3.7,26 C3.7,38.4 13.8,48.5 26.2,48.5 C38.6,48.5 48.7,38.4 48.7,26 C48.7,22.8 48,19.7 46.7,16.8 C46.4,16 46.7,15.2 47.5,14.8 C48.3,14.5 49.1,14.8 49.5,15.6 C51,18.9 51.7,22.4 51.7,26 C51.7,40.1 40.2,51.5 26.2,51.5 Z" id="Shape"></path>
                <path d="M22.8,36.5 C22.4,36.5 22,36.4 21.7,36.1 L13.7,28.1 C13.1,27.5 13.1,26.6 13.7,26 C14.3,25.4 15.2,25.4 15.8,26 L22.7,32.9 L50.6,5 C51.2,4.4 52.1,4.4 52.7,5 C53.3,5.6 53.3,6.5 52.7,7.1 L23.7,36.1 C23.6,36.4 23.2,36.5 22.8,36.5 Z" id="Shape"></path>
            </g>
        </g>
    </g>
</svg>